<svg width="26" height="27" viewBox="0 0 26 27" fill="none" xmlns="http://www.w3.org/2000/svg">
<path d="M13.002 4.39502C10.4345 4.39502 10.1122 4.40625 9.10381 4.45214C8.09735 4.49823 7.41036 4.65757 6.80924 4.89136C6.18744 5.13283 5.65999 5.45584 5.1345 5.98152C4.60862 6.50701 4.28561 7.03446 4.04335 7.65606C3.80897 8.25738 3.64943 8.94457 3.60413 9.95063C3.55903 10.9591 3.54721 11.2815 3.54721 13.849C3.54721 16.4166 3.55863 16.7378 3.60433 17.7463C3.65061 18.7527 3.80995 19.4397 4.04355 20.0408C4.28522 20.6626 4.60823 21.1901 5.13391 21.7156C5.6592 22.2414 6.18665 22.5652 6.80806 22.8067C7.40957 23.0405 8.09676 23.1998 9.10302 23.2459C10.1114 23.2918 10.4335 23.3031 13.0008 23.3031C15.5686 23.3031 15.8898 23.2918 16.8983 23.2459C17.9047 23.1998 18.5925 23.0405 19.194 22.8067C19.8156 22.5652 20.3423 22.2414 20.8676 21.7156C21.3934 21.1901 21.7165 20.6626 21.9587 20.041C22.1911 19.4397 22.3507 18.7525 22.3979 17.7465C22.4432 16.738 22.455 16.4166 22.455 13.849C22.455 11.2815 22.4432 10.9593 22.3979 9.95083C22.3507 8.94437 22.1911 8.25738 21.9587 7.65626C21.7165 7.03446 21.3934 6.50701 20.8676 5.98152C20.3417 5.45564 19.8158 5.13263 19.1934 4.89136C18.5907 4.65757 17.9033 4.49823 16.8969 4.45214C15.8884 4.40625 15.5674 4.39502 12.9991 4.39502H13.002ZM12.1539 6.09871C12.4056 6.09832 12.6865 6.09871 13.002 6.09871C15.5262 6.09871 15.8254 6.10777 16.8222 6.15307C17.744 6.19522 18.2443 6.34924 18.5775 6.47865C19.0187 6.65 19.3333 6.85484 19.6639 7.18573C19.9948 7.51662 20.1997 7.83175 20.3714 8.27294C20.5008 8.6058 20.655 9.10607 20.697 10.0278C20.7423 11.0245 20.7521 11.3238 20.7521 13.8469C20.7521 16.3699 20.7423 16.6693 20.697 17.6659C20.6548 18.5877 20.5008 19.0879 20.3714 19.4208C20.2001 19.862 19.9948 20.1761 19.6639 20.5068C19.3331 20.8377 19.0189 21.0426 18.5775 21.2139C18.2447 21.3439 17.744 21.4975 16.8222 21.5397C15.8256 21.585 15.5262 21.5948 13.002 21.5948C10.4776 21.5948 10.1784 21.585 9.18181 21.5397C8.26004 21.4971 7.75976 21.3431 7.42631 21.2137C6.98512 21.0424 6.66999 20.8375 6.3391 20.5066C6.00821 20.1757 5.80337 19.8614 5.63162 19.42C5.50222 19.0872 5.348 18.5869 5.30605 17.6651C5.26075 16.6685 5.25169 16.3691 5.25169 13.8445C5.25169 11.3199 5.26075 11.0221 5.30605 10.0255C5.3482 9.10371 5.50222 8.60344 5.63162 8.27018C5.80298 7.82899 6.00821 7.51386 6.3391 7.18297C6.66999 6.85208 6.98512 6.64724 7.42631 6.47549C7.75957 6.3455 8.26004 6.19187 9.18181 6.14953C10.0539 6.11014 10.3919 6.09832 12.1539 6.09635V6.09871ZM18.0485 7.66847C17.4222 7.66847 16.914 8.17604 16.914 8.80256C16.914 9.42889 17.4222 9.93704 18.0485 9.93704C18.6748 9.93704 19.183 9.42889 19.183 8.80256C19.183 8.17623 18.6748 7.66808 18.0485 7.66808V7.66847ZM13.002 8.99401C10.3208 8.99401 8.14698 11.1678 8.14698 13.849C8.14698 16.5302 10.3208 18.7031 13.002 18.7031C15.6832 18.7031 17.8563 16.5302 17.8563 13.849C17.8563 11.1678 15.683 8.99401 13.0018 8.99401H13.002ZM13.002 10.6977C14.7423 10.6977 16.1534 12.1085 16.1534 13.849C16.1534 15.5894 14.7423 17.0004 13.002 17.0004C11.2615 17.0004 9.85068 15.5894 9.85068 13.849C9.85068 12.1085 11.2615 10.6977 13.002 10.6977Z" fill="#EBECEC" fill-opacity="0.8"/>
</svg>
