<svg width="32" height="33" viewBox="0 0 32 33" fill="none" xmlns="http://www.w3.org/2000/svg">
<g clip-path="url(#clip0_1_561)">
<path d="M6.44789 8.66224C6.44789 7.9063 7.07605 7.29367 7.8511 7.29367H24.1522C24.9272 7.29367 25.5554 7.9063 25.5554 8.66224V25.0326C25.5554 25.7885 24.9272 26.4011 24.1522 26.4011H7.8511C7.07605 26.4011 6.44789 25.7885 6.44789 25.0326V8.66224ZM12.3509 23.289V14.6608H9.48359V23.289H12.3509ZM10.9178 13.4821C11.9174 13.4821 12.5396 12.8205 12.5396 11.9917C12.5217 11.145 11.9186 10.5013 10.937 10.5013C9.95531 10.5013 9.31401 11.1462 9.31401 11.9917C9.31401 12.8205 9.9362 13.4821 10.8987 13.4821H10.9178ZM16.7791 23.289V18.4703C16.7791 18.2124 16.7982 17.9544 16.8746 17.7705C17.0812 17.2558 17.5529 16.722 18.3459 16.722C19.3836 16.722 19.798 17.5126 19.798 18.6734V23.289H22.6654V18.3402C22.6654 15.689 21.2514 14.4566 19.3645 14.4566C17.8431 14.4566 17.1612 15.2925 16.7791 15.8813V15.9111H16.76C16.7663 15.9012 16.7727 15.8912 16.7791 15.8813V14.6608H13.9129C13.9488 15.4705 13.9129 23.289 13.9129 23.289H16.7791Z" fill="#EBECEC" fill-opacity="0.8"/>
</g>
<defs>
<clipPath id="clip0_1_561">
<rect width="19.1075" height="19.1075" fill="white" transform="translate(6.44594 7.29367)"/>
</clipPath>
</defs>
</svg>
