<svg width="32" height="33" viewBox="0 0 32 33" fill="none" xmlns="http://www.w3.org/2000/svg">
<path d="M12.4968 16.0782C13.592 14.983 15.5021 14.983 16.5974 16.0782L17.2808 16.7616L18.6476 15.3948L17.9642 14.7113C17.0527 13.7988 15.8385 13.2952 14.5471 13.2952C13.2556 13.2952 12.0415 13.7988 11.13 14.7113L9.07873 16.7616C8.17423 17.669 7.66633 18.898 7.66633 20.1792C7.66633 21.4604 8.17423 22.6894 9.07873 23.5968C9.52714 24.0459 10.0599 24.4019 10.6463 24.6444C11.2327 24.8869 11.8613 25.0112 12.4959 25.0101C13.1306 25.0114 13.7594 24.8872 14.346 24.6447C14.9326 24.4021 15.4655 24.046 15.9139 23.5968L16.5974 22.9134L15.2305 21.5466L14.5471 22.23C14.0024 22.7723 13.265 23.0767 12.4963 23.0767C11.7277 23.0767 10.9903 22.7723 10.4456 22.23C9.90281 21.6855 9.59803 20.948 9.59803 20.1792C9.59803 19.4104 9.90281 18.673 10.4456 18.1285L12.4968 16.0782Z" fill="#EBECEC" fill-opacity="0.8"/>
<path d="M15.9143 9.92727L15.2309 10.6107L16.5978 11.9775L17.2812 11.2941C17.8259 10.7518 18.5633 10.4474 19.3319 10.4474C20.1006 10.4474 20.838 10.7518 21.3827 11.2941C21.9255 11.8386 22.2303 12.5761 22.2303 13.3449C22.2303 14.1137 21.9255 14.8511 21.3827 15.3956L19.3315 17.4459C18.2362 18.5411 16.3261 18.5411 15.2309 17.4459L14.5475 16.7625L13.1806 18.1293L13.8641 18.8127C14.7756 19.7253 15.9897 20.2289 17.2812 20.2289C18.5726 20.2289 19.7868 19.7253 20.6983 18.8127L22.7495 16.7625C23.6541 15.8551 24.162 14.6261 24.162 13.3449C24.162 12.0637 23.6541 10.8347 22.7495 9.92727C21.8424 9.02229 20.6133 8.51407 19.3319 8.51407C18.0506 8.51407 16.8215 9.02229 15.9143 9.92727Z" fill="#EBECEC" fill-opacity="0.8"/>
</svg>
