<svg width="32" height="33" viewBox="0 0 32 33" fill="none" xmlns="http://www.w3.org/2000/svg">
<path d="M23.0875 12.3672C20.5862 8.51098 15.4792 7.36453 11.5188 9.76165C7.66256 12.1588 6.41189 17.3699 8.91323 21.2261L9.12167 21.5388L8.28789 24.6655L11.4146 23.8317L11.7272 24.0401C13.0821 24.7697 14.5412 25.1866 16.0004 25.1866C17.5637 25.1866 19.127 24.7697 20.4819 23.9359C24.3382 21.4346 25.4846 16.3277 23.0875 12.3672ZM20.8988 20.3924C20.4819 21.0177 19.9608 21.4346 19.2313 21.5388C18.8144 21.5388 18.2933 21.7472 16.2088 20.9135C14.437 20.0797 12.9779 18.7248 11.9357 17.1615C11.3103 16.4319 10.9977 15.4939 10.8935 14.5559C10.8935 13.7221 11.2061 12.9926 11.7272 12.4714C11.9357 12.263 12.1441 12.1588 12.3526 12.1588H12.8737C13.0821 12.1588 13.2906 12.1588 13.3948 12.5757C13.6032 13.0968 14.1244 14.3474 14.1244 14.4517C14.2286 14.5559 14.2286 14.7643 14.1244 14.8686C14.2286 15.077 14.1244 15.2854 14.0201 15.3897C13.9159 15.4939 13.8117 15.7023 13.7075 15.8066C13.499 15.9108 13.3948 16.1192 13.499 16.3277C13.9159 16.953 14.437 17.5783 14.9581 18.0995C15.5835 18.6206 16.2088 19.0375 16.9384 19.3501C17.1468 19.4543 17.3553 19.4544 17.4595 19.2459C17.5637 19.0375 18.0848 18.5163 18.2933 18.3079C18.5017 18.0995 18.6059 18.0995 18.8144 18.2037L20.4819 19.0375C20.6904 19.1417 20.8988 19.2459 21.003 19.3501C21.1073 19.6628 21.1073 20.0797 20.8988 20.3924Z" fill="#EBECEC" fill-opacity="0.8"/>
</svg>
